<?xml version="1.0" encoding="UTF-8" standalone="no"?>
<!-- Created with Inkscape (http://www.inkscape.org/) -->

<svg
   width="84.156944mm"
   height="20.7843mm"
   viewBox="0 0 84.156944 20.7843"
   version="1.1"
   id="svg5"
   inkscape:version="1.2 (dc2aedaf03, 2022-05-15)"
   sodipodi:docname="ON_logo.svg"
   xmlns:inkscape="http://www.inkscape.org/namespaces/inkscape"
   xmlns:sodipodi="http://sodipodi.sourceforge.net/DTD/sodipodi-0.dtd"
   xmlns="http://www.w3.org/2000/svg"
   xmlns:svg="http://www.w3.org/2000/svg">
  <sodipodi:namedview
     id="namedview7"
     pagecolor="#ffffff"
     bordercolor="#666666"
     borderopacity="1.0"
     inkscape:showpageshadow="2"
     inkscape:pageopacity="0.0"
     inkscape:pagecheckerboard="0"
     inkscape:deskcolor="#d1d1d1"
     inkscape:document-units="mm"
     showgrid="false"
     showguides="true"
     inkscape:zoom="1.6819304"
     inkscape:cx="186.69024"
     inkscape:cy="29.430468"
     inkscape:window-width="1920"
     inkscape:window-height="1023"
     inkscape:window-x="0"
     inkscape:window-y="0"
     inkscape:window-maximized="1"
     inkscape:current-layer="layer1">
    <sodipodi:guide
       position="47.825703,3.9706395"
       orientation="0,-1"
       id="guide1184"
       inkscape:locked="false" />
  </sodipodi:namedview>
  <defs
     id="defs2" />
  <g
     inkscape:label="Layer 1"
     inkscape:groupmode="layer"
     id="layer1"
     transform="translate(-48.837065,-135.46635)">
    <g
       aria-label="OnlyNews"
       id="text741"
       style="font-size:19.7556px;line-height:1.25;font-family:Jura;-inkscape-font-specification:Jura;letter-spacing:0px;word-spacing:0px;fill:#56e456;stroke-width:0.264583">
      <path
         d="m 92.119655,152.31788 q -0.730957,0 -1.047047,-0.31609 -0.31609,-0.33585 -0.31609,-1.2446 0,-0.61243 0.118534,-1.48167 0.118534,-0.86925 0.414868,-2.6275 0.03951,-0.23707 0.316089,-1.91629 0.276579,-1.69898 0.49389,-3.55601 0.197556,-1.58045 0.197556,-2.37067 0,-0.889 -0.651935,-0.889 -0.49389,0 -1.244602,0.5334 -0.730958,0.51364 -1.580448,1.65947 -0.276579,0.37535 -0.612424,0.37535 -0.276578,0 -0.49389,-0.25682 -0.197556,-0.27658 -0.197556,-0.61242 0,-0.33585 0.118534,-0.63218 0.118533,-0.31609 0.434623,-0.75071 0.968024,-1.32363 2.15336,-2.03483 1.185336,-0.73096 2.489206,-0.73096 1.086558,0 1.619959,0.67169 0.553157,0.67169 0.553157,1.95581 0,1.14582 -0.31609,3.31894 0.98778,-2.92383 2.508961,-4.42526 1.521181,-1.52118 3.57576,-1.52118 1.61996,0 2.42994,0.92852 0.82974,0.90875 0.82974,2.44969 0,0.86925 -0.25683,2.11385 l -1.20509,5.6501 q -0.19755,0.98778 -0.19755,1.69898 0,0.82974 0.37535,1.2446 0.39511,0.41487 1.08656,0.41487 0.65194,0 1.26436,-0.43462 0.63218,-0.43462 1.48167,-1.44216 0.23707,-0.27658 0.5334,-0.27658 0.25682,0 0.39511,0.23707 0.15805,0.23707 0.15805,0.65193 0,0.77047 -0.37536,1.22485 -1.02729,1.2446 -2.03483,1.81752 -1.00753,0.57291 -2.11385,0.57291 -1.67922,0 -2.62749,-0.98778 -0.948269,-1.00754 -0.948269,-2.68676 0,-0.65194 0.0988,-1.42241 0.11853,-0.77046 0.37536,-1.9558 l 0.790219,-3.61528 q 0.0395,-0.1778 0.13829,-0.63217 0.0988,-0.45438 0.15804,-0.8495 0.0593,-0.41486 0.0593,-0.80997 0,-0.63218 -0.3556,-1.00754 -0.3556,-0.37536 -1.007539,-0.37536 -1.18533,0 -2.370668,1.26436 -1.185336,1.26436 -2.192871,4.08941 -1.007536,2.8053 -1.580448,7.19104 -0.13829,1.00753 -0.414868,1.40265 -0.256823,0.39511 -1.027291,0.39511 z"
         style="fill:#20cd20"
         id="path1075" />
      <path
         d="m 114.75959,147.8136 q 0.25682,0 0.39511,0.23707 0.15804,0.23707 0.15804,0.65193 0,0.79023 -0.37535,1.22485 -0.73096,0.889 -2.07434,1.63972 -1.32363,0.75071 -2.84481,0.75071 -2.07433,0 -3.22016,-1.12607 -1.14582,-1.12607 -1.14582,-3.08187 0,-1.36314 0.57291,-2.52872 0.57291,-1.18534 1.58045,-1.87678 1.02729,-0.69145 2.3114,-0.69145 1.14583,0 1.83727,0.69145 0.69145,0.67169 0.69145,1.83727 0,1.36313 -0.98778,2.35091 -0.96803,0.96803 -3.29919,1.54094 0.49389,0.90876 1.87678,0.90876 0.88901,0 2.01508,-0.61242 1.14582,-0.63218 1.97556,-1.63972 0.23706,-0.27658 0.5334,-0.27658 z m -4.97841,-2.86456 q -0.73096,0 -1.24461,0.84949 -0.49389,0.84949 -0.49389,2.05458 v 0.0395 q 1.16558,-0.27657 1.83727,-0.82973 0.67169,-0.55316 0.67169,-1.28411 0,-0.37536 -0.21731,-0.59267 -0.19755,-0.23707 -0.55315,-0.23707 z"
         style="fill:#20cd20"
         id="path1077" />
      <path
         d="m 125.6449,142.99324 q 1.08656,0 1.08656,0.69144 0,0.23707 -0.15805,0.65194 -1.6002,3.7338 -3.0226,6.02545 -0.71121,1.12607 -1.28412,1.54094 -0.57291,0.41487 -1.30387,0.41487 -0.79022,0 -1.18533,-0.61242 -0.37536,-0.61243 -0.47414,-2.01508 -0.0395,-0.51364 -0.079,-1.54093 -0.61242,1.69898 -1.12607,2.60774 -0.49389,0.889 -0.98778,1.22484 -0.47413,0.33585 -1.14582,0.33585 -0.80998,0 -1.28412,-0.63218 -0.45438,-0.63218 -0.57291,-1.99532 -0.23707,-2.76578 -0.23707,-4.84012 v -0.69144 q 0.0198,-0.67169 0.33585,-0.90876 0.31609,-0.25682 1.02729,-0.25682 0.51364,0 0.75071,0.23706 0.25682,0.21731 0.25682,0.75072 0,2.27189 0.27658,5.90692 0.65194,-1.38289 1.20509,-2.64725 0.55316,-1.26436 1.28412,-3.23992 0.21731,-0.59267 0.51364,-0.79022 0.31609,-0.21731 0.73096,-0.21731 0.55316,0 0.82974,0.23706 0.27657,0.21731 0.27657,0.75072 v 3.06211 q 0,1.97556 0.0198,2.84481 0.90876,-1.58045 1.48167,-2.74603 0.59267,-1.16558 1.32362,-3.14114 0.21732,-0.59267 0.57292,-0.79022 0.3556,-0.21731 0.889,-0.21731 z"
         style="fill:#20cd20"
         id="path1079" />
      <path
         d="m 129.95163,152.7525 q -1.02729,0 -1.58045,-0.47413 -0.5334,-0.47414 -0.5334,-1.0668 0,-0.51365 0.37535,-0.88901 0.37536,-0.37535 1.10632,-0.37535 0.25682,0 0.59267,0.0593 0.3556,0.0395 0.5334,0.0593 -0.0198,-0.51365 -0.23707,-0.96802 -0.19756,-0.45438 -0.51365,-0.86925 -0.31609,-0.43462 -0.59266,-0.75071 -0.61243,1.16558 -1.22485,1.93605 -0.59267,0.77046 -1.30387,1.46191 -0.3556,0.3556 -0.75071,0.3556 -0.31609,0 -0.51365,-0.21731 -0.19756,-0.23707 -0.19756,-0.57291 0,-0.39512 0.27658,-0.73096 l 0.25683,-0.31609 q 1.08655,-1.34338 1.63971,-2.21263 0.3556,-0.57291 0.7112,-1.36313 0.37536,-0.79023 0.96803,-2.15336 0.37535,-0.86925 1.56069,-0.86925 0.55316,0 0.77047,0.0988 0.21731,0.0988 0.21731,0.31609 0,0.11853 -0.079,0.37535 -0.079,0.25683 -0.21732,0.51365 -0.3556,0.7112 -0.3556,1.20509 0,0.29633 0.19756,0.65194 0.21731,0.3556 0.65193,0.889 0.63218,0.82973 0.94827,1.4224 0.33585,0.57291 0.33585,1.26436 0,0.82973 -0.39511,1.58045 -0.37536,0.73095 -1.06681,1.18533 -0.69144,0.45438 -1.58044,0.45438 z"
         style="fill:#20cd20"
         id="path1081" />
    </g>
    <text
       xml:space="preserve"
       style="font-size:20.2699px;line-height:1.25;font-family:Jura;-inkscape-font-specification:Jura;letter-spacing:0px;word-spacing:0px;fill:#bd05ff;fill-opacity:1;stroke-width:0.237538"
       x="47.215473"
       y="152.19667"
       id="text1182"><tspan
         sodipodi:role="line"
         id="tspan1180"
         x="47.215473"
         y="152.19667"
         style="font-size:20.2699px;fill:#bd05ff;fill-opacity:1;stroke-width:0.237538">Only</tspan></text>
  </g>
</svg>
